<svg width="339" height="167" viewBox="0 0 339 167" fill="none" xmlns="http://www.w3.org/2000/svg">
<rect x="28" y="37" width="59" height="59" rx="7" stroke="#4B4942" stroke-width="2"/>
<rect x="27" y="36" width="61" height="61" rx="8" fill="#FFD966"/>
<path d="M59.9432 57.5455V75H57.8295V59.7614H57.7273L53.4659 62.5909V60.4432L57.8295 57.5455H59.9432Z" fill="#4B4942"/>
<rect x="12" y="121" width="327" height="46" rx="8" fill="#4B4942"/>
<path d="M17.8125 150.594C17.8125 150.133 17.9531 149.738 18.2344 149.41C18.5156 149.082 18.9414 148.918 19.5117 148.918C20.0742 148.918 20.5 149.082 20.7891 149.41C21.0859 149.73 21.2344 150.125 21.2344 150.594C21.2344 151.055 21.0859 151.441 20.7891 151.754C20.4922 152.066 20.0664 152.223 19.5117 152.223C18.9492 152.223 18.5234 152.066 18.2344 151.754C17.9531 151.434 17.8125 151.047 17.8125 150.594ZM27.0492 139.32L27.1078 140.516C27.3656 140.07 27.7016 139.723 28.1156 139.473C28.5375 139.223 29.0453 139.094 29.6391 139.086C29.975 139.086 30.2758 139.125 30.5414 139.203C30.8148 139.273 31.0531 139.379 31.2563 139.52C31.4047 139.629 31.5375 139.762 31.6547 139.918C31.7797 140.074 31.8852 140.25 31.9711 140.445C32.0805 140.266 32.2094 140.098 32.3578 139.941C32.5063 139.785 32.6664 139.648 32.8383 139.531C33.057 139.398 33.2992 139.293 33.5648 139.215C33.8383 139.137 34.1352 139.094 34.4555 139.086C34.893 139.086 35.2875 139.152 35.6391 139.285C35.9906 139.41 36.2875 139.598 36.5297 139.848C36.7953 140.129 36.9984 140.496 37.1391 140.949C37.2797 141.395 37.35 141.922 37.35 142.531V152H35.2875V142.508C35.2875 142.242 35.2563 142.008 35.1938 141.805C35.1313 141.602 35.0414 141.434 34.9242 141.301C34.7992 141.176 34.643 141.082 34.4555 141.02C34.2758 140.957 34.0648 140.926 33.8227 140.926C33.5648 140.926 33.3422 140.961 33.1547 141.031C32.9672 141.102 32.8109 141.195 32.6859 141.312C32.5609 141.438 32.4633 141.582 32.393 141.746C32.3227 141.902 32.2758 142.078 32.2523 142.273C32.2523 142.312 32.2523 142.352 32.2523 142.391C32.2523 142.422 32.2523 142.461 32.2523 142.508V152H30.1898V142.496C30.1898 142.23 30.1586 141.996 30.0961 141.793C30.0414 141.59 29.9516 141.422 29.8266 141.289C29.7094 141.164 29.5609 141.074 29.3813 141.02C29.2094 140.957 29.0063 140.926 28.7719 140.926C28.5141 140.926 28.2875 140.957 28.0922 141.02C27.9047 141.074 27.7445 141.156 27.6117 141.266C27.5102 141.352 27.4203 141.449 27.3422 141.559C27.2719 141.668 27.2133 141.785 27.1664 141.91V152H25.1039V139.32H27.0492ZM46.3992 152C46.3133 151.836 46.243 151.633 46.1883 151.391C46.1414 151.141 46.1063 150.883 46.0828 150.617C45.8641 150.836 45.618 151.043 45.3445 151.238C45.0789 151.434 44.7859 151.605 44.4656 151.754C44.1375 151.902 43.7898 152.02 43.4227 152.105C43.0555 152.191 42.6648 152.234 42.2508 152.234C41.5789 152.234 40.9695 152.137 40.4227 151.941C39.8836 151.746 39.4266 151.48 39.0516 151.145C38.6688 150.816 38.3719 150.426 38.1609 149.973C37.9578 149.512 37.8563 149.016 37.8563 148.484C37.8563 147.789 37.993 147.18 38.2664 146.656C38.5477 146.133 38.9422 145.695 39.45 145.344C39.9578 145 40.5672 144.742 41.2781 144.57C41.9969 144.398 42.7977 144.312 43.6805 144.312H46.0477V143.316C46.0477 142.934 45.9773 142.59 45.8367 142.285C45.6961 141.98 45.4969 141.719 45.2391 141.5C44.9813 141.289 44.6648 141.125 44.2898 141.008C43.9227 140.891 43.5086 140.832 43.0477 140.832C42.618 140.832 42.2313 140.887 41.8875 140.996C41.5516 141.105 41.2664 141.25 41.032 141.43C40.7977 141.609 40.6141 141.824 40.4813 142.074C40.3563 142.316 40.2938 142.57 40.2938 142.836H38.1141C38.1219 142.375 38.2391 141.922 38.4656 141.477C38.7 141.031 39.0359 140.629 39.4734 140.27C39.9031 139.918 40.4266 139.633 41.0438 139.414C41.6688 139.195 42.3758 139.086 43.1648 139.086C43.8836 139.086 44.5516 139.176 45.1688 139.355C45.7859 139.527 46.3211 139.789 46.7742 140.141C47.2195 140.5 47.5711 140.945 47.8289 141.477C48.0867 142.008 48.2156 142.629 48.2156 143.34V149.234C48.2156 149.656 48.2547 150.105 48.3328 150.582C48.4109 151.051 48.5203 151.461 48.6609 151.812V152H46.3992ZM42.5672 150.348C42.9891 150.348 43.3836 150.293 43.7508 150.184C44.118 150.074 44.4539 149.93 44.7586 149.75C45.0555 149.57 45.3133 149.367 45.532 149.141C45.7508 148.906 45.9227 148.664 46.0477 148.414V145.848H44.032C43.282 145.848 42.6258 145.914 42.0633 146.047C41.5086 146.172 41.0672 146.367 40.7391 146.633C40.5047 146.82 40.325 147.043 40.2 147.301C40.0828 147.559 40.0242 147.852 40.0242 148.18C40.0242 148.492 40.075 148.781 40.1766 149.047C40.2859 149.312 40.4461 149.539 40.657 149.727C40.868 149.922 41.1336 150.074 41.4539 150.184C41.7742 150.293 42.1453 150.348 42.5672 150.348ZM50.0695 156.875V139.32H52.05L52.1555 140.703C52.3273 140.484 52.5148 140.289 52.718 140.117C52.9211 139.938 53.1398 139.785 53.3742 139.66C53.7023 139.473 54.0656 139.332 54.4641 139.238C54.8703 139.137 55.3039 139.086 55.7648 139.086C56.5773 139.086 57.2961 139.246 57.9211 139.566C58.5461 139.887 59.0695 140.332 59.4914 140.902C59.9133 141.473 60.2336 142.156 60.4523 142.953C60.6711 143.742 60.7805 144.609 60.7805 145.555V145.801C60.7805 146.707 60.6711 147.555 60.4523 148.344C60.2336 149.125 59.9133 149.805 59.4914 150.383C59.0695 150.961 58.5461 151.414 57.9211 151.742C57.3039 152.07 56.5969 152.234 55.8 152.234C55.3156 152.234 54.8625 152.184 54.4406 152.082C54.0266 151.98 53.6516 151.836 53.3156 151.648C53.1125 151.531 52.9211 151.402 52.7414 151.262C52.5617 151.113 52.3937 150.953 52.2375 150.781V156.875H50.0695ZM58.6125 145.555C58.6125 144.938 58.5422 144.352 58.4016 143.797C58.2687 143.234 58.0617 142.738 57.7805 142.309C57.4914 141.887 57.1281 141.551 56.6906 141.301C56.2531 141.051 55.7297 140.926 55.1203 140.926C54.7844 140.926 54.4719 140.965 54.1828 141.043C53.9016 141.121 53.6477 141.234 53.4211 141.383C53.1711 141.531 52.9484 141.715 52.7531 141.934C52.5578 142.152 52.3859 142.395 52.2375 142.66V148.766C52.3703 149 52.5227 149.219 52.6945 149.422C52.8664 149.625 53.0617 149.797 53.2805 149.938C53.5305 150.102 53.8078 150.23 54.1125 150.324C54.425 150.418 54.7687 150.465 55.1437 150.465C55.7453 150.465 56.2648 150.34 56.7023 150.09C57.1398 149.832 57.4992 149.488 57.7805 149.059C58.0617 148.629 58.2687 148.133 58.4016 147.57C58.5422 147.008 58.6125 146.418 58.6125 145.801V145.555ZM64.2398 145.074C64.2398 143.957 64.3258 142.906 64.4977 141.922C64.6773 140.938 64.9156 140.023 65.2125 139.18C65.5094 138.344 65.8492 137.578 66.232 136.883C66.6227 136.188 67.0328 135.57 67.4625 135.031C67.8844 134.492 68.3102 134.031 68.7398 133.648C69.1695 133.266 69.5797 132.965 69.9703 132.746L70.4273 134.176C70.1773 134.363 69.9234 134.59 69.6656 134.855C69.4156 135.121 69.1695 135.418 68.9273 135.746C68.568 136.254 68.2242 136.852 67.8961 137.539C67.568 138.219 67.2945 138.965 67.0758 139.777C66.8648 140.512 66.7008 141.32 66.5836 142.203C66.4664 143.086 66.4078 144.035 66.4078 145.051V145.215C66.4078 146.191 66.4625 147.105 66.5719 147.957C66.6813 148.809 66.8297 149.594 67.0172 150.312C67.2203 151.039 67.4547 151.711 67.7203 152.328C67.9859 152.953 68.2633 153.512 68.5523 154.004C68.8492 154.473 69.1539 154.887 69.4664 155.246C69.7867 155.613 70.107 155.926 70.4273 156.184L69.9703 157.508C69.5797 157.289 69.1656 156.988 68.7281 156.605C68.2984 156.23 67.8727 155.77 67.4508 155.223C67.0211 154.684 66.6109 154.066 66.2203 153.371C65.8375 152.684 65.5016 151.918 65.2125 151.074C64.9156 150.238 64.6773 149.328 64.4977 148.344C64.3258 147.359 64.2398 146.309 64.2398 145.191V145.074ZM74.1094 152V139.32H76.0547L76.207 141.195C76.3945 140.93 76.5977 140.688 76.8164 140.469C77.043 140.242 77.2812 140.047 77.5312 139.883C77.9062 139.633 78.3125 139.441 78.75 139.309C79.1953 139.168 79.6641 139.094 80.1562 139.086C80.8203 139.086 81.4219 139.18 81.9609 139.367C82.5078 139.555 82.9727 139.848 83.3555 140.246C83.7383 140.645 84.0312 141.152 84.2344 141.77C84.4453 142.379 84.5508 143.105 84.5508 143.949V152H82.3828V143.996C82.3828 143.434 82.3203 142.957 82.1953 142.566C82.0703 142.176 81.8867 141.859 81.6445 141.617C81.3945 141.375 81.0898 141.199 80.7305 141.09C80.3789 140.98 79.9727 140.926 79.5117 140.926C79.1133 140.926 78.7422 140.984 78.3984 141.102C78.0547 141.211 77.7383 141.363 77.4492 141.559C77.2148 141.73 76.9961 141.93 76.793 142.156C76.5977 142.383 76.4258 142.633 76.2773 142.906V152H74.1094ZM108.591 142.859H98.1258V140.973H108.591V142.859ZM108.591 147.723H98.1258V145.848H108.591V147.723ZM110.198 149.691V147.441L117.78 144.582L118.484 144.383L117.78 144.16L110.198 141.348V139.109L120.546 143.539V145.25L110.198 149.691ZM134.18 152V139.32H136.125L136.277 141.195C136.465 140.93 136.668 140.688 136.887 140.469C137.113 140.242 137.352 140.047 137.602 139.883C137.977 139.633 138.383 139.441 138.82 139.309C139.266 139.168 139.734 139.094 140.227 139.086C140.891 139.086 141.492 139.18 142.031 139.367C142.578 139.555 143.043 139.848 143.426 140.246C143.809 140.645 144.102 141.152 144.305 141.77C144.516 142.379 144.621 143.105 144.621 143.949V152H142.453V143.996C142.453 143.434 142.391 142.957 142.266 142.566C142.141 142.176 141.957 141.859 141.715 141.617C141.465 141.375 141.16 141.199 140.801 141.09C140.449 140.98 140.043 140.926 139.582 140.926C139.184 140.926 138.812 140.984 138.469 141.102C138.125 141.211 137.809 141.363 137.52 141.559C137.285 141.73 137.066 141.93 136.863 142.156C136.668 142.383 136.496 142.633 136.348 142.906V152H134.18ZM150.448 141.277L146.03 140.152L146.663 138.102L150.94 139.871L150.647 134.938H152.733L152.393 139.941L156.647 138.184L157.28 140.27L152.803 141.371L155.803 145.168L154.092 146.457L151.584 142.203L149.1 146.352L147.389 145.109L150.448 141.277ZM168.673 152H157.493V150.441L163.083 144.23C163.583 143.676 164.001 143.184 164.337 142.754C164.673 142.324 164.942 141.926 165.145 141.559C165.348 141.199 165.493 140.859 165.579 140.539C165.665 140.211 165.708 139.875 165.708 139.531C165.708 139.109 165.637 138.715 165.497 138.348C165.364 137.973 165.169 137.648 164.911 137.375C164.645 137.102 164.325 136.887 163.95 136.73C163.583 136.566 163.165 136.484 162.696 136.484C162.126 136.484 161.63 136.566 161.208 136.73C160.794 136.895 160.45 137.125 160.177 137.422C159.895 137.727 159.684 138.094 159.544 138.523C159.411 138.953 159.345 139.434 159.345 139.965H157.165C157.165 139.246 157.29 138.57 157.54 137.938C157.79 137.297 158.153 136.738 158.63 136.262C159.098 135.785 159.673 135.406 160.352 135.125C161.04 134.844 161.821 134.703 162.696 134.703C163.501 134.703 164.223 134.824 164.864 135.066C165.512 135.301 166.059 135.629 166.505 136.051C166.95 136.473 167.29 136.973 167.524 137.551C167.766 138.129 167.887 138.758 167.887 139.438C167.887 139.945 167.802 140.449 167.63 140.949C167.458 141.441 167.227 141.93 166.938 142.414C166.641 142.898 166.298 143.379 165.907 143.855C165.524 144.324 165.118 144.793 164.688 145.262L160.106 150.23H168.673V152ZM178.132 145.191C178.132 146.309 178.042 147.359 177.863 148.344C177.691 149.328 177.456 150.238 177.159 151.074C176.863 151.918 176.519 152.684 176.128 153.371C175.745 154.066 175.343 154.684 174.921 155.223C174.491 155.77 174.058 156.23 173.62 156.605C173.191 156.988 172.78 157.289 172.39 157.508L171.933 156.184C172.261 155.941 172.593 155.629 172.929 155.246C173.265 154.863 173.585 154.422 173.89 153.922C174.179 153.414 174.456 152.84 174.722 152.199C174.995 151.566 175.218 150.871 175.39 150.113C175.57 149.41 175.706 148.652 175.8 147.84C175.902 147.02 175.952 146.145 175.952 145.215V145.051C175.952 143.996 175.886 143.039 175.753 142.18C175.628 141.32 175.488 140.59 175.331 139.988C175.105 139.129 174.831 138.359 174.511 137.68C174.191 136.992 173.863 136.395 173.527 135.887C173.269 135.488 173.003 135.141 172.73 134.844C172.456 134.539 172.191 134.281 171.933 134.07L172.39 132.746C172.78 132.965 173.195 133.266 173.632 133.648C174.07 134.031 174.499 134.492 174.921 135.031C175.359 135.586 175.769 136.203 176.152 136.883C176.534 137.562 176.87 138.328 177.159 139.18C177.441 140 177.671 140.891 177.851 141.852C178.038 142.805 178.132 143.879 178.132 145.074V145.191Z" fill="#F5F5F5"/>
<path d="M239.633 134.281H237.043V153.875H239.633V155.656H234.992V132.5H239.633V134.281ZM256.918 152H245.738V150.441L251.328 144.23C251.828 143.676 252.246 143.184 252.582 142.754C252.918 142.324 253.188 141.926 253.391 141.559C253.594 141.199 253.738 140.859 253.824 140.539C253.91 140.211 253.953 139.875 253.953 139.531C253.953 139.109 253.883 138.715 253.742 138.348C253.609 137.973 253.414 137.648 253.156 137.375C252.891 137.102 252.57 136.887 252.195 136.73C251.828 136.566 251.41 136.484 250.941 136.484C250.371 136.484 249.875 136.566 249.453 136.73C249.039 136.895 248.695 137.125 248.422 137.422C248.141 137.727 247.93 138.094 247.789 138.523C247.656 138.953 247.59 139.434 247.59 139.965H245.41C245.41 139.246 245.535 138.57 245.785 137.938C246.035 137.297 246.398 136.738 246.875 136.262C247.344 135.785 247.918 135.406 248.598 135.125C249.285 134.844 250.066 134.703 250.941 134.703C251.746 134.703 252.469 134.824 253.109 135.066C253.758 135.301 254.305 135.629 254.75 136.051C255.195 136.473 255.535 136.973 255.77 137.551C256.012 138.129 256.133 138.758 256.133 139.438C256.133 139.945 256.047 140.449 255.875 140.949C255.703 141.441 255.473 141.93 255.184 142.414C254.887 142.898 254.543 143.379 254.152 143.855C253.77 144.324 253.363 144.793 252.934 145.262L248.352 150.23H256.918V152ZM266.363 151.496C266.363 152.277 266.18 153.074 265.812 153.887C265.445 154.699 264.949 155.383 264.324 155.938L262.977 155.199C263.352 154.652 263.617 154.07 263.773 153.453C263.93 152.836 264.008 152.195 264.008 151.531V149.434H266.363V151.496ZM284.07 146.27H286.449V148.039H284.07V152H281.902V148.039H274.121V146.762L281.762 134.938H284.07V146.27ZM276.523 146.27H281.902V137.82L281.551 138.477L276.523 146.27ZM295.191 151.496C295.191 152.277 295.008 153.074 294.641 153.887C294.273 154.699 293.777 155.383 293.152 155.938L291.805 155.199C292.18 154.652 292.445 154.07 292.602 153.453C292.758 152.836 292.836 152.195 292.836 151.531V149.434H295.191V151.496ZM312.102 134.926V136.871H311.914C310.883 136.871 310.008 137.02 309.289 137.316C308.57 137.605 307.977 137.996 307.508 138.488C307.016 139.004 306.641 139.617 306.383 140.328C306.133 141.039 305.984 141.77 305.938 142.52C306.141 142.277 306.375 142.055 306.641 141.852C306.906 141.641 307.195 141.457 307.508 141.301C307.812 141.152 308.141 141.035 308.492 140.949C308.852 140.855 309.227 140.809 309.617 140.809C310.469 140.809 311.203 140.973 311.82 141.301C312.438 141.621 312.945 142.047 313.344 142.578C313.742 143.109 314.035 143.711 314.223 144.383C314.41 145.055 314.504 145.738 314.504 146.434C314.504 147.23 314.391 147.98 314.164 148.684C313.945 149.387 313.613 150 313.168 150.523C312.723 151.055 312.168 151.473 311.504 151.777C310.848 152.082 310.086 152.234 309.219 152.234C308.344 152.234 307.574 152.059 306.91 151.707C306.246 151.355 305.688 150.898 305.234 150.336C304.727 149.719 304.348 149 304.098 148.18C303.848 147.352 303.723 146.523 303.723 145.695V144.676C303.723 143.254 303.891 141.855 304.227 140.48C304.562 139.105 305.219 137.93 306.195 136.953C306.867 136.281 307.684 135.777 308.645 135.441C309.605 135.098 310.695 134.926 311.914 134.926H312.102ZM309.266 142.613C308.898 142.613 308.543 142.672 308.199 142.789C307.855 142.906 307.535 143.07 307.238 143.281C306.941 143.492 306.68 143.746 306.453 144.043C306.227 144.34 306.047 144.668 305.914 145.027V145.754C305.914 146.504 306.004 147.172 306.184 147.758C306.363 148.336 306.605 148.824 306.91 149.223C307.215 149.621 307.566 149.926 307.965 150.137C308.363 150.34 308.781 150.441 309.219 150.441C309.727 150.441 310.176 150.344 310.566 150.148C310.957 149.953 311.289 149.684 311.562 149.34C311.828 148.996 312.027 148.586 312.16 148.109C312.301 147.625 312.371 147.102 312.371 146.539C312.371 146.039 312.309 145.555 312.184 145.086C312.059 144.609 311.867 144.188 311.609 143.82C311.352 143.453 311.027 143.16 310.637 142.941C310.246 142.723 309.789 142.613 309.266 142.613ZM321.23 132.5H325.883V155.656H321.23V153.875H323.832V134.281H321.23V132.5Z" fill="#F5F5F5"/>
<path d="M214.707 144.707C215.098 144.317 215.098 143.683 214.707 143.293L208.343 136.929C207.953 136.538 207.319 136.538 206.929 136.929C206.538 137.319 206.538 137.953 206.929 138.343L212.586 144L206.929 149.657C206.538 150.047 206.538 150.681 206.929 151.071C207.319 151.462 207.953 151.462 208.343 151.071L214.707 144.707ZM184 145H214V143H184V145Z" fill="#F5F5F5"/>
<rect x="97" y="36" width="61" height="61" rx="8" fill="#FFD966"/>
<path d="M121.807 75V73.4659L127.568 67.1591C128.244 66.4205 128.801 65.7784 129.239 65.233C129.676 64.6818 130 64.1648 130.21 63.6818C130.426 63.1932 130.534 62.6818 130.534 62.1477C130.534 61.5341 130.386 61.0028 130.091 60.554C129.801 60.1051 129.403 59.7585 128.898 59.5142C128.392 59.2699 127.824 59.1477 127.193 59.1477C126.523 59.1477 125.938 59.2869 125.438 59.5653C124.943 59.8381 124.56 60.2216 124.287 60.7159C124.02 61.2102 123.886 61.7898 123.886 62.4545H121.875C121.875 61.4318 122.111 60.5341 122.582 59.7614C123.054 58.9886 123.696 58.3864 124.509 57.9545C125.327 57.5227 126.244 57.3068 127.261 57.3068C128.284 57.3068 129.19 57.5227 129.98 57.9545C130.77 58.3864 131.389 58.9687 131.838 59.7017C132.287 60.4347 132.511 61.25 132.511 62.1477C132.511 62.7898 132.395 63.4176 132.162 64.0312C131.935 64.6392 131.537 65.3182 130.969 66.0682C130.406 66.8125 129.625 67.7216 128.625 68.7955L124.705 72.9886V73.125H132.818V75H121.807Z" fill="#4B4942"/>
<rect x="167" y="36" width="61" height="61" rx="8" fill="#FFD966"/>
<path d="M197.705 75.2386C196.58 75.2386 195.577 75.0455 194.696 74.6591C193.821 74.2727 193.125 73.7358 192.608 73.0483C192.097 72.3551 191.818 71.5511 191.773 70.6364H193.92C193.966 71.1989 194.159 71.6847 194.5 72.0938C194.841 72.4972 195.287 72.8097 195.838 73.0312C196.389 73.2528 197 73.3636 197.67 73.3636C198.42 73.3636 199.085 73.233 199.665 72.9716C200.244 72.7102 200.699 72.3466 201.028 71.8807C201.358 71.4148 201.523 70.875 201.523 70.2614C201.523 69.6193 201.364 69.054 201.045 68.5653C200.727 68.071 200.261 67.6847 199.648 67.4062C199.034 67.1278 198.284 66.9886 197.398 66.9886H196V65.1136H197.398C198.091 65.1136 198.699 64.9886 199.222 64.7386C199.75 64.4886 200.162 64.1364 200.457 63.6818C200.759 63.2273 200.909 62.6932 200.909 62.0795C200.909 61.4886 200.778 60.9744 200.517 60.5369C200.256 60.0994 199.886 59.7585 199.409 59.5142C198.938 59.2699 198.381 59.1477 197.739 59.1477C197.136 59.1477 196.568 59.2585 196.034 59.4801C195.506 59.696 195.074 60.0114 194.739 60.4261C194.403 60.8352 194.222 61.3295 194.193 61.9091H192.148C192.182 60.9943 192.457 60.1932 192.974 59.5057C193.491 58.8125 194.168 58.2727 195.003 57.8864C195.844 57.5 196.767 57.3068 197.773 57.3068C198.852 57.3068 199.778 57.5256 200.551 57.9631C201.324 58.3949 201.918 58.9659 202.332 59.6761C202.747 60.3864 202.955 61.1534 202.955 61.9773C202.955 62.9602 202.696 63.7983 202.179 64.4915C201.668 65.1847 200.972 65.6648 200.091 65.9318V66.0682C201.193 66.25 202.054 66.7187 202.673 67.4744C203.293 68.2244 203.602 69.1534 203.602 70.2614C203.602 71.2102 203.344 72.0625 202.827 72.8182C202.315 73.5682 201.616 74.1591 200.73 74.5909C199.844 75.0227 198.835 75.2386 197.705 75.2386Z" fill="#4B4942"/>
<path d="M242.621 20.8636V111.773H224.439V106.375H236.584V26.2614H224.439V20.8636H242.621Z" fill="#00B0F0"/>
<path d="M12.0384 111.773V20.8636H30.2202V26.2614H18.0753V106.375H30.2202V111.773H12.0384Z" fill="#00B0F0"/>
</svg>
