<svg width="776" height="123" viewBox="0 0 776 123" fill="none" xmlns="http://www.w3.org/2000/svg">
<rect width="61" height="61" rx="8" fill="#EE5013"/>
<rect y="77" width="416" height="46" rx="8" fill="#4B4942"/>
<rect x="66" y="1" width="59" height="59" rx="7" stroke="#4B4942" stroke-width="2"/>
<rect x="65" width="61" height="61" rx="8" fill="#FFD966"/>
<path d="M97.7955 21.5455H99.9091V34.0227C99.9091 35.1364 99.7045 36.0824 99.2955 36.8608C98.8864 37.6392 98.3097 38.2301 97.5653 38.6335C96.821 39.0369 95.9432 39.2386 94.9318 39.2386C93.9773 39.2386 93.1278 39.0653 92.3835 38.7188C91.6392 38.3665 91.054 37.8665 90.6278 37.2188C90.2017 36.571 89.9886 35.8011 89.9886 34.9091H92.0682C92.0682 35.4034 92.1903 35.8352 92.4347 36.2045C92.6847 36.5682 93.0256 36.8523 93.4574 37.0568C93.8892 37.2614 94.3807 37.3636 94.9318 37.3636C95.5398 37.3636 96.0568 37.2358 96.483 36.9801C96.9091 36.7244 97.233 36.3494 97.4545 35.8551C97.6818 35.3551 97.7955 34.7443 97.7955 34.0227V21.5455Z" fill="black"/>
<rect x="326" y="1" width="59" height="59" rx="7" stroke="#4B4942" stroke-width="2"/>
<rect x="325" width="61" height="61" rx="8" fill="#FFD966"/>
<path d="M359.659 25.9091C359.557 25.0455 359.142 24.375 358.415 23.8977C357.688 23.4205 356.795 23.1818 355.739 23.1818C354.966 23.1818 354.29 23.3068 353.71 23.5568C353.136 23.8068 352.688 24.1506 352.364 24.5881C352.045 25.0256 351.886 25.5227 351.886 26.0795C351.886 26.5455 351.997 26.946 352.219 27.2812C352.446 27.6108 352.736 27.8864 353.088 28.108C353.44 28.3239 353.81 28.5028 354.196 28.6449C354.582 28.7812 354.938 28.892 355.261 28.9773L357.034 29.4545C357.489 29.5739 357.994 29.7386 358.551 29.9489C359.114 30.1591 359.651 30.446 360.162 30.8097C360.679 31.1676 361.105 31.6278 361.44 32.1903C361.776 32.7528 361.943 33.4432 361.943 34.2614C361.943 35.2045 361.696 36.0568 361.202 36.8182C360.713 37.5795 359.997 38.1847 359.054 38.6335C358.116 39.0824 356.977 39.3068 355.636 39.3068C354.386 39.3068 353.304 39.1051 352.389 38.7017C351.48 38.2983 350.764 37.7358 350.241 37.0142C349.724 36.2926 349.432 35.4545 349.364 34.5H351.545C351.602 35.1591 351.824 35.7045 352.21 36.1364C352.602 36.5625 353.097 36.8807 353.693 37.0909C354.295 37.2955 354.943 37.3977 355.636 37.3977C356.443 37.3977 357.168 37.267 357.81 37.0057C358.452 36.7386 358.96 36.3693 359.335 35.8977C359.71 35.4205 359.898 34.8636 359.898 34.2273C359.898 33.6477 359.736 33.1761 359.412 32.8125C359.088 32.4489 358.662 32.1534 358.134 31.9261C357.605 31.6989 357.034 31.5 356.42 31.3295L354.273 30.7159C352.909 30.3239 351.83 29.7642 351.034 29.0369C350.239 28.3097 349.841 27.358 349.841 26.1818C349.841 25.2045 350.105 24.3523 350.634 23.625C351.168 22.892 351.884 22.3239 352.781 21.9205C353.685 21.5114 354.693 21.3068 355.807 21.3068C356.932 21.3068 357.932 21.5085 358.807 21.9119C359.682 22.3097 360.375 22.8551 360.886 23.5483C361.403 24.2415 361.676 25.0284 361.705 25.9091H359.659Z" fill="black"/>
<rect x="391" y="1" width="59" height="59" rx="7" stroke="#4B4942" stroke-width="2"/>
<rect x="390" width="61" height="61" rx="8" fill="#FFD966"/>
<path d="M421.159 39.2727C419.932 39.2727 418.875 38.983 417.989 38.4034C417.102 37.8239 416.42 37.0256 415.943 36.0085C415.466 34.9915 415.227 33.8295 415.227 32.5227C415.227 31.1932 415.472 30.0199 415.96 29.0028C416.455 27.9801 417.142 27.1818 418.023 26.608C418.909 26.0284 419.943 25.7386 421.125 25.7386C422.045 25.7386 422.875 25.9091 423.614 26.25C424.352 26.5909 424.957 27.0682 425.429 27.6818C425.901 28.2955 426.193 29.0114 426.307 29.8295H424.295C424.142 29.233 423.801 28.7045 423.273 28.2443C422.75 27.7784 422.045 27.5455 421.159 27.5455C420.375 27.5455 419.688 27.75 419.097 28.1591C418.511 28.5625 418.054 29.1335 417.724 29.8722C417.401 30.6051 417.239 31.4659 417.239 32.4545C417.239 33.4659 417.398 34.3466 417.716 35.0966C418.04 35.8466 418.494 36.429 419.08 36.8438C419.67 37.2585 420.364 37.4659 421.159 37.4659C421.682 37.4659 422.156 37.375 422.582 37.1932C423.009 37.0114 423.369 36.75 423.665 36.4091C423.96 36.0682 424.17 35.6591 424.295 35.1818H426.307C426.193 35.9545 425.912 36.6506 425.463 37.2699C425.02 37.8835 424.432 38.3722 423.699 38.7358C422.972 39.0938 422.125 39.2727 421.159 39.2727Z" fill="black"/>
<rect x="456" y="1" width="59" height="59" rx="7" stroke="#4B4942" stroke-width="2"/>
<rect x="455" width="61" height="61" rx="8" fill="#FFD966"/>
<path d="M482.841 39V25.9091H484.784V27.8864H484.92C485.159 27.2386 485.591 26.7131 486.216 26.3097C486.841 25.9062 487.545 25.7045 488.33 25.7045C488.477 25.7045 488.662 25.7074 488.884 25.7131C489.105 25.7187 489.273 25.7273 489.386 25.7386V27.7841C489.318 27.767 489.162 27.7415 488.918 27.7074C488.679 27.6676 488.426 27.6477 488.159 27.6477C487.523 27.6477 486.955 27.7812 486.455 28.0483C485.96 28.3097 485.568 28.6733 485.278 29.1392C484.994 29.5994 484.852 30.125 484.852 30.7159V39H482.841Z" fill="black"/>
<rect x="521" y="1" width="59" height="59" rx="7" stroke="#4B4942" stroke-width="2"/>
<rect x="520" width="61" height="61" rx="8" fill="#FFD966"/>
<path d="M549.841 39V25.9091H551.852V39H549.841ZM550.864 23.7273C550.472 23.7273 550.134 23.5938 549.849 23.3267C549.571 23.0597 549.432 22.7386 549.432 22.3636C549.432 21.9886 549.571 21.6676 549.849 21.4006C550.134 21.1335 550.472 21 550.864 21C551.256 21 551.591 21.1335 551.869 21.4006C552.153 21.6676 552.295 21.9886 552.295 22.3636C552.295 22.7386 552.153 23.0597 551.869 23.3267C551.591 23.5938 551.256 23.7273 550.864 23.7273Z" fill="black"/>
<rect x="585" width="61" height="61" rx="8" fill="#FFD966"/>
<path d="M612.841 43.9091V25.9091H614.784V27.9886H615.023C615.17 27.7614 615.375 27.4716 615.636 27.1193C615.903 26.7614 616.284 26.4432 616.778 26.1648C617.278 25.8807 617.955 25.7386 618.807 25.7386C619.909 25.7386 620.881 26.0142 621.722 26.5653C622.563 27.1165 623.219 27.8977 623.69 28.9091C624.162 29.9205 624.398 31.1136 624.398 32.4886C624.398 33.875 624.162 35.0767 623.69 36.0938C623.219 37.1051 622.565 37.8892 621.73 38.446C620.895 38.9972 619.932 39.2727 618.841 39.2727C618 39.2727 617.327 39.1335 616.821 38.8551C616.315 38.571 615.926 38.25 615.653 37.892C615.381 37.5284 615.17 37.2273 615.023 36.9886H614.852V43.9091H612.841ZM614.818 32.4545C614.818 33.4432 614.963 34.3153 615.253 35.071C615.543 35.821 615.966 36.4091 616.523 36.8352C617.08 37.2557 617.761 37.4659 618.568 37.4659C619.409 37.4659 620.111 37.2443 620.673 36.8011C621.241 36.3523 621.668 35.75 621.952 34.9943C622.241 34.233 622.386 33.3864 622.386 32.4545C622.386 31.5341 622.244 30.7045 621.96 29.9659C621.682 29.2216 621.259 28.6335 620.69 28.2017C620.128 27.7642 619.42 27.5455 618.568 27.5455C617.75 27.5455 617.063 27.7528 616.506 28.1676C615.949 28.5767 615.528 29.1506 615.244 29.8892C614.96 30.6222 614.818 31.4773 614.818 32.4545Z" fill="black"/>
<rect x="650" width="61" height="61" rx="8" fill="#FFD966"/>
<path d="M683.534 25.9091V27.6136H676.75V25.9091H683.534ZM678.727 22.7727H680.739V35.25C680.739 35.8182 680.821 36.2443 680.986 36.5284C681.156 36.8068 681.372 36.9943 681.634 37.0909C681.901 37.1818 682.182 37.2273 682.477 37.2273C682.699 37.2273 682.881 37.2159 683.023 37.1932C683.165 37.1648 683.278 37.142 683.364 37.125L683.773 38.9318C683.636 38.983 683.446 39.0341 683.202 39.0852C682.957 39.142 682.648 39.1705 682.273 39.1705C681.705 39.1705 681.148 39.0483 680.602 38.804C680.063 38.5597 679.614 38.1875 679.256 37.6875C678.903 37.1875 678.727 36.5568 678.727 35.7955V22.7727Z" fill="black"/>
<rect x="715" width="61" height="61" rx="8" fill="#EE5013"/>
<rect x="131" y="1" width="59" height="59" rx="7" fill="#78B500"/>
<rect x="131" y="1" width="59" height="59" rx="7" stroke="#4B4942" stroke-width="2"/>
<rect x="130" width="61" height="61" rx="8" fill="#FFD966"/>
<path d="M159.693 39.3068C158.864 39.3068 158.111 39.1506 157.435 38.8381C156.759 38.5199 156.222 38.0625 155.824 37.4659C155.426 36.8636 155.227 36.1364 155.227 35.2841C155.227 34.5341 155.375 33.9261 155.67 33.4602C155.966 32.9886 156.361 32.6193 156.855 32.3523C157.349 32.0852 157.895 31.8864 158.491 31.7557C159.094 31.6193 159.699 31.5114 160.307 31.4318C161.102 31.3295 161.747 31.2528 162.241 31.2017C162.741 31.1449 163.105 31.0511 163.332 30.9205C163.565 30.7898 163.682 30.5625 163.682 30.2386V30.1705C163.682 29.3295 163.452 28.6761 162.991 28.2102C162.537 27.7443 161.847 27.5114 160.92 27.5114C159.96 27.5114 159.207 27.7216 158.662 28.142C158.116 28.5625 157.733 29.0114 157.511 29.4886L155.602 28.8068C155.943 28.0114 156.398 27.392 156.966 26.9489C157.54 26.5 158.165 26.1875 158.841 26.0114C159.523 25.8295 160.193 25.7386 160.852 25.7386C161.273 25.7386 161.756 25.7898 162.301 25.892C162.852 25.9886 163.384 26.1903 163.895 26.4972C164.412 26.804 164.841 27.267 165.182 27.8864C165.523 28.5057 165.693 29.3352 165.693 30.375V39H163.682V37.2273H163.58C163.443 37.5114 163.216 37.8153 162.898 38.1392C162.58 38.4631 162.156 38.7386 161.628 38.9659C161.099 39.1932 160.455 39.3068 159.693 39.3068ZM160 37.5C160.795 37.5 161.466 37.3438 162.011 37.0312C162.563 36.7188 162.977 36.3153 163.256 35.821C163.54 35.3267 163.682 34.8068 163.682 34.2614V32.4205C163.597 32.5227 163.409 32.6165 163.119 32.7017C162.835 32.7812 162.506 32.8523 162.131 32.9148C161.761 32.9716 161.401 33.0227 161.048 33.0682C160.702 33.108 160.42 33.142 160.205 33.1705C159.682 33.2386 159.193 33.3494 158.739 33.5028C158.29 33.6506 157.926 33.875 157.648 34.1761C157.375 34.4716 157.239 34.875 157.239 35.3864C157.239 36.0852 157.497 36.6136 158.014 36.9716C158.537 37.3239 159.199 37.5 160 37.5Z" fill="#4B4942"/>
<rect x="261" y="1" width="59" height="59" rx="7" stroke="#4B4942" stroke-width="2"/>
<rect x="260" width="61" height="61" rx="8" fill="#FFD966"/>
<path d="M289.693 39.3068C288.864 39.3068 288.111 39.1506 287.435 38.8381C286.759 38.5199 286.222 38.0625 285.824 37.4659C285.426 36.8636 285.227 36.1364 285.227 35.2841C285.227 34.5341 285.375 33.9261 285.67 33.4602C285.966 32.9886 286.361 32.6193 286.855 32.3523C287.349 32.0852 287.895 31.8864 288.491 31.7557C289.094 31.6193 289.699 31.5114 290.307 31.4318C291.102 31.3295 291.747 31.2528 292.241 31.2017C292.741 31.1449 293.105 31.0511 293.332 30.9205C293.565 30.7898 293.682 30.5625 293.682 30.2386V30.1705C293.682 29.3295 293.452 28.6761 292.991 28.2102C292.537 27.7443 291.847 27.5114 290.92 27.5114C289.96 27.5114 289.207 27.7216 288.662 28.142C288.116 28.5625 287.733 29.0114 287.511 29.4886L285.602 28.8068C285.943 28.0114 286.398 27.392 286.966 26.9489C287.54 26.5 288.165 26.1875 288.841 26.0114C289.523 25.8295 290.193 25.7386 290.852 25.7386C291.273 25.7386 291.756 25.7898 292.301 25.892C292.852 25.9886 293.384 26.1903 293.895 26.4972C294.412 26.804 294.841 27.267 295.182 27.8864C295.523 28.5057 295.693 29.3352 295.693 30.375V39H293.682V37.2273H293.58C293.443 37.5114 293.216 37.8153 292.898 38.1392C292.58 38.4631 292.156 38.7386 291.628 38.9659C291.099 39.1932 290.455 39.3068 289.693 39.3068ZM290 37.5C290.795 37.5 291.466 37.3438 292.011 37.0312C292.563 36.7188 292.977 36.3153 293.256 35.821C293.54 35.3267 293.682 34.8068 293.682 34.2614V32.4205C293.597 32.5227 293.409 32.6165 293.119 32.7017C292.835 32.7812 292.506 32.8523 292.131 32.9148C291.761 32.9716 291.401 33.0227 291.048 33.0682C290.702 33.108 290.42 33.142 290.205 33.1705C289.682 33.2386 289.193 33.3494 288.739 33.5028C288.29 33.6506 287.926 33.875 287.648 34.1761C287.375 34.4716 287.239 34.875 287.239 35.3864C287.239 36.0852 287.497 36.6136 288.014 36.9716C288.537 37.3239 289.199 37.5 290 37.5Z" fill="black"/>
<rect x="196" y="1" width="59" height="59" rx="7" stroke="#4B4942" stroke-width="2"/>
<rect x="195" width="61" height="61" rx="8" fill="#FFD966"/>
<path d="M231.545 25.9091L226.705 39H224.659L219.818 25.9091H222L225.614 36.3409H225.75L229.364 25.9091H231.545Z" fill="black"/>
<path d="M5.8125 107.594C5.8125 107.133 5.95312 106.738 6.23438 106.41C6.51562 106.082 6.94141 105.918 7.51172 105.918C8.07422 105.918 8.5 106.082 8.78906 106.41C9.08594 106.73 9.23438 107.125 9.23438 107.594C9.23438 108.055 9.08594 108.441 8.78906 108.754C8.49219 109.066 8.06641 109.223 7.51172 109.223C6.94922 109.223 6.52344 109.066 6.23438 108.754C5.95312 108.434 5.8125 108.047 5.8125 107.594ZM21.5859 93.25V96.3203H26.4141V97.9961H21.5859V104.887C21.5859 105.379 21.6484 105.785 21.7734 106.105C21.8984 106.426 22.0703 106.68 22.2891 106.867C22.5078 107.062 22.7578 107.199 23.0391 107.277C23.3281 107.355 23.6328 107.395 23.9531 107.395C24.1875 107.395 24.4297 107.383 24.6797 107.359C24.9297 107.328 25.1758 107.293 25.418 107.254C25.6523 107.215 25.8711 107.176 26.0742 107.137C26.2852 107.09 26.457 107.051 26.5898 107.02L26.8945 108.555C26.7148 108.664 26.4961 108.762 26.2383 108.848C25.9805 108.926 25.6992 108.992 25.3945 109.047C25.0898 109.109 24.7656 109.156 24.4219 109.188C24.0859 109.219 23.75 109.234 23.4141 109.234C22.8516 109.234 22.3242 109.156 21.832 109C21.3477 108.836 20.9258 108.578 20.5664 108.227C20.207 107.883 19.9219 107.438 19.7109 106.891C19.5078 106.336 19.4062 105.668 19.4062 104.887V97.9961H16.0781V96.3203H19.4062V93.25H21.5859ZM39.1758 96.0859C39.5742 96.0859 39.9883 96.1133 40.418 96.168C40.8555 96.2227 41.1836 96.2969 41.4023 96.3906L41.1094 98.5117C40.6875 98.418 40.2852 98.3516 39.9023 98.3125C39.5273 98.2656 39.1328 98.2422 38.7188 98.2422C38.1875 98.2422 37.707 98.3086 37.2773 98.4414C36.8477 98.5664 36.4727 98.7539 36.1523 99.0039C35.8633 99.2227 35.6094 99.4922 35.3906 99.8125C35.1797 100.125 35.0039 100.477 34.8633 100.867V109H32.6836V96.3203H34.7461L34.8398 98.0195L34.8516 98.3359C35.3672 97.6406 35.9844 97.0938 36.7031 96.6953C37.4297 96.2891 38.2539 96.0859 39.1758 96.0859ZM45.6211 96.3203H52.1016V107.125H56.2383V109H45.6211V107.125H49.9336V98.207H45.6211V96.3203ZM49.6523 92.9922C49.6523 92.8047 49.6797 92.6289 49.7344 92.4648C49.7969 92.3008 49.8906 92.1602 50.0156 92.043C50.1172 91.9414 50.2461 91.8633 50.4023 91.8086C50.5664 91.7461 50.75 91.7148 50.9531 91.7148C51.1562 91.7148 51.3359 91.7461 51.4922 91.8086C51.6484 91.8633 51.7773 91.9414 51.8789 92.043C52.0039 92.1523 52.0977 92.2891 52.1602 92.4531C52.2227 92.6172 52.2539 92.7969 52.2539 92.9922C52.2539 93.3438 52.1445 93.6367 51.9258 93.8711C51.707 94.1055 51.3828 94.2227 50.9531 94.2227C50.5156 94.2227 50.1875 94.1055 49.9688 93.8711C49.7578 93.6367 49.6523 93.3438 49.6523 92.9922ZM60.6914 96.3203L60.75 97.5156C61.0078 97.0703 61.3438 96.7227 61.7578 96.4727C62.1797 96.2227 62.6875 96.0938 63.2812 96.0859C63.6172 96.0859 63.918 96.125 64.1836 96.2031C64.457 96.2734 64.6953 96.3789 64.8984 96.5195C65.0469 96.6289 65.1797 96.7617 65.2969 96.918C65.4219 97.0742 65.5273 97.25 65.6133 97.4453C65.7227 97.2656 65.8516 97.0977 66 96.9414C66.1484 96.7852 66.3086 96.6484 66.4805 96.5312C66.6992 96.3984 66.9414 96.293 67.207 96.2148C67.4805 96.1367 67.7773 96.0938 68.0977 96.0859C68.5352 96.0859 68.9297 96.1523 69.2812 96.2852C69.6328 96.4102 69.9297 96.5977 70.1719 96.8477C70.4375 97.1289 70.6406 97.4961 70.7812 97.9492C70.9219 98.3945 70.9922 98.9219 70.9922 99.5312V109H68.9297V99.5078C68.9297 99.2422 68.8984 99.0078 68.8359 98.8047C68.7734 98.6016 68.6836 98.4336 68.5664 98.3008C68.4414 98.1758 68.2852 98.082 68.0977 98.0195C67.918 97.957 67.707 97.9258 67.4648 97.9258C67.207 97.9258 66.9844 97.9609 66.7969 98.0312C66.6094 98.1016 66.4531 98.1953 66.3281 98.3125C66.2031 98.4375 66.1055 98.582 66.0352 98.7461C65.9648 98.9023 65.918 99.0781 65.8945 99.2734C65.8945 99.3125 65.8945 99.3516 65.8945 99.3906C65.8945 99.4219 65.8945 99.4609 65.8945 99.5078V109H63.832V99.4961C63.832 99.2305 63.8008 98.9961 63.7383 98.793C63.6836 98.5898 63.5938 98.4219 63.4688 98.2891C63.3516 98.1641 63.2031 98.0742 63.0234 98.0195C62.8516 97.957 62.6484 97.9258 62.4141 97.9258C62.1562 97.9258 61.9297 97.957 61.7344 98.0195C61.5469 98.0742 61.3867 98.1562 61.2539 98.2656C61.1523 98.3516 61.0625 98.4492 60.9844 98.5586C60.9141 98.668 60.8555 98.7852 60.8086 98.9102V109H58.7461V96.3203H60.6914ZM83.4961 101.113H76.3711V107.16H84.6797V109H74.2031V91.9375H84.5742V93.7891H76.3711V99.2734H83.4961V101.113ZM88.5234 109V96.3203H90.4688L90.6211 98.1953C90.8086 97.9297 91.0117 97.6875 91.2305 97.4688C91.457 97.2422 91.6953 97.0469 91.9453 96.8828C92.3203 96.6328 92.7266 96.4414 93.1641 96.3086C93.6094 96.168 94.0781 96.0938 94.5703 96.0859C95.2344 96.0859 95.8359 96.1797 96.375 96.3672C96.9219 96.5547 97.3867 96.8477 97.7695 97.2461C98.1523 97.6445 98.4453 98.1523 98.6484 98.7695C98.8594 99.3789 98.9648 100.105 98.9648 100.949V109H96.7969V100.996C96.7969 100.434 96.7344 99.957 96.6094 99.5664C96.4844 99.1758 96.3008 98.8594 96.0586 98.6172C95.8086 98.375 95.5039 98.1992 95.1445 98.0898C94.793 97.9805 94.3867 97.9258 93.9258 97.9258C93.5273 97.9258 93.1562 97.9844 92.8125 98.1016C92.4688 98.2109 92.1523 98.3633 91.8633 98.5586C91.6289 98.7305 91.4102 98.9297 91.207 99.1562C91.0117 99.3828 90.8398 99.6328 90.6914 99.9062V109H88.5234ZM102.527 102.555C102.527 101.609 102.645 100.742 102.879 99.9531C103.121 99.1562 103.465 98.4727 103.91 97.9023C104.348 97.332 104.879 96.8867 105.504 96.5664C106.129 96.2461 106.828 96.0859 107.602 96.0859C108.359 96.0859 109.02 96.2148 109.582 96.4727C110.152 96.7227 110.645 97.0898 111.059 97.5742V91H113.227V109H111.234L111.141 107.664C110.719 108.18 110.215 108.57 109.629 108.836C109.043 109.102 108.359 109.234 107.578 109.234C106.812 109.234 106.117 109.07 105.492 108.742C104.875 108.414 104.348 107.961 103.91 107.383C103.473 106.805 103.133 106.125 102.891 105.344C102.648 104.555 102.527 103.707 102.527 102.801V102.555ZM104.695 102.801C104.695 103.418 104.762 104.004 104.895 104.559C105.027 105.113 105.234 105.602 105.516 106.023C105.789 106.445 106.141 106.781 106.57 107.031C107 107.273 107.516 107.395 108.117 107.395C108.844 107.395 109.445 107.23 109.922 106.902C110.398 106.574 110.777 106.133 111.059 105.578V99.6953C110.777 99.1797 110.398 98.7578 109.922 98.4297C109.445 98.0938 108.852 97.9258 108.141 97.9258C107.531 97.9258 107.008 98.0508 106.57 98.3008C106.141 98.5508 105.789 98.8867 105.516 99.3086C105.234 99.7383 105.027 100.234 104.895 100.797C104.762 101.352 104.695 101.938 104.695 102.555V102.801ZM119.496 102.074C119.496 100.957 119.582 99.9062 119.754 98.9219C119.934 97.9375 120.172 97.0234 120.469 96.1797C120.766 95.3438 121.105 94.5781 121.488 93.8828C121.879 93.1875 122.289 92.5703 122.719 92.0312C123.141 91.4922 123.566 91.0312 123.996 90.6484C124.426 90.2656 124.836 89.9648 125.227 89.7461L125.684 91.1758C125.434 91.3633 125.18 91.5898 124.922 91.8555C124.672 92.1211 124.426 92.418 124.184 92.7461C123.824 93.2539 123.48 93.8516 123.152 94.5391C122.824 95.2188 122.551 95.9648 122.332 96.7773C122.121 97.5117 121.957 98.3203 121.84 99.2031C121.723 100.086 121.664 101.035 121.664 102.051V102.215C121.664 103.191 121.719 104.105 121.828 104.957C121.938 105.809 122.086 106.594 122.273 107.312C122.477 108.039 122.711 108.711 122.977 109.328C123.242 109.953 123.52 110.512 123.809 111.004C124.105 111.473 124.41 111.887 124.723 112.246C125.043 112.613 125.363 112.926 125.684 113.184L125.227 114.508C124.836 114.289 124.422 113.988 123.984 113.605C123.555 113.23 123.129 112.77 122.707 112.223C122.277 111.684 121.867 111.066 121.477 110.371C121.094 109.684 120.758 108.918 120.469 108.074C120.172 107.238 119.934 106.328 119.754 105.344C119.582 104.359 119.496 103.309 119.496 102.191V102.074ZM139.676 102.191C139.676 103.309 139.586 104.359 139.406 105.344C139.234 106.328 139 107.238 138.703 108.074C138.406 108.918 138.062 109.684 137.672 110.371C137.289 111.066 136.887 111.684 136.465 112.223C136.035 112.77 135.602 113.23 135.164 113.605C134.734 113.988 134.324 114.289 133.934 114.508L133.477 113.184C133.805 112.941 134.137 112.629 134.473 112.246C134.809 111.863 135.129 111.422 135.434 110.922C135.723 110.414 136 109.84 136.266 109.199C136.539 108.566 136.762 107.871 136.934 107.113C137.113 106.41 137.25 105.652 137.344 104.84C137.445 104.02 137.496 103.145 137.496 102.215V102.051C137.496 100.996 137.43 100.039 137.297 99.1797C137.172 98.3203 137.031 97.5898 136.875 96.9883C136.648 96.1289 136.375 95.3594 136.055 94.6797C135.734 93.9922 135.406 93.3945 135.07 92.8867C134.812 92.4883 134.547 92.1406 134.273 91.8438C134 91.5391 133.734 91.2812 133.477 91.0703L133.934 89.7461C134.324 89.9648 134.738 90.2656 135.176 90.6484C135.613 91.0312 136.043 91.4922 136.465 92.0312C136.902 92.5859 137.312 93.2031 137.695 93.8828C138.078 94.5625 138.414 95.3281 138.703 96.1797C138.984 97 139.215 97.8906 139.395 98.8516C139.582 99.8047 139.676 100.879 139.676 102.074V102.191Z" fill="#F5F5F5"/>
<path d="M223.766 95.1133C223.766 94.7461 223.809 94.3594 223.895 93.9531C223.988 93.5469 224.125 93.1445 224.305 92.7461C224.477 92.3555 224.688 91.9805 224.938 91.6211C225.188 91.2617 225.477 90.9414 225.805 90.6602L226.988 91.5039C226.621 92.0586 226.344 92.625 226.156 93.2031C225.977 93.7812 225.887 94.4062 225.887 95.0781V96.8242H223.766V95.1133ZM256.871 91.9375H259.086V103.809C259.07 104.598 258.918 105.324 258.629 105.988C258.348 106.652 257.961 107.223 257.469 107.699C256.977 108.184 256.395 108.562 255.723 108.836C255.059 109.102 254.332 109.234 253.543 109.234C252.746 109.234 252.02 109.113 251.363 108.871C250.715 108.629 250.152 108.281 249.676 107.828C249.191 107.383 248.805 106.844 248.516 106.211C248.227 105.57 248.047 104.855 247.977 104.066H250.18C250.203 104.543 250.297 104.984 250.461 105.391C250.633 105.797 250.863 106.148 251.152 106.445C251.441 106.75 251.785 106.984 252.184 107.148C252.59 107.312 253.043 107.395 253.543 107.395C254.059 107.395 254.52 107.301 254.926 107.113C255.332 106.918 255.68 106.656 255.969 106.328C256.25 106 256.465 105.621 256.613 105.191C256.77 104.754 256.855 104.293 256.871 103.809V91.9375ZM271.613 109C271.527 108.836 271.457 108.633 271.402 108.391C271.355 108.141 271.32 107.883 271.297 107.617C271.078 107.836 270.832 108.043 270.559 108.238C270.293 108.434 270 108.605 269.68 108.754C269.352 108.902 269.004 109.02 268.637 109.105C268.27 109.191 267.879 109.234 267.465 109.234C266.793 109.234 266.184 109.137 265.637 108.941C265.098 108.746 264.641 108.48 264.266 108.145C263.883 107.816 263.586 107.426 263.375 106.973C263.172 106.512 263.07 106.016 263.07 105.484C263.07 104.789 263.207 104.18 263.48 103.656C263.762 103.133 264.156 102.695 264.664 102.344C265.172 102 265.781 101.742 266.492 101.57C267.211 101.398 268.012 101.312 268.895 101.312H271.262V100.316C271.262 99.9336 271.191 99.5898 271.051 99.2852C270.91 98.9805 270.711 98.7188 270.453 98.5C270.195 98.2891 269.879 98.125 269.504 98.0078C269.137 97.8906 268.723 97.832 268.262 97.832C267.832 97.832 267.445 97.8867 267.102 97.9961C266.766 98.1055 266.48 98.25 266.246 98.4297C266.012 98.6094 265.828 98.8242 265.695 99.0742C265.57 99.3164 265.508 99.5703 265.508 99.8359H263.328C263.336 99.375 263.453 98.9219 263.68 98.4766C263.914 98.0312 264.25 97.6289 264.688 97.2695C265.117 96.918 265.641 96.6328 266.258 96.4141C266.883 96.1953 267.59 96.0859 268.379 96.0859C269.098 96.0859 269.766 96.1758 270.383 96.3555C271 96.5273 271.535 96.7891 271.988 97.1406C272.434 97.5 272.785 97.9453 273.043 98.4766C273.301 99.0078 273.43 99.6289 273.43 100.34V106.234C273.43 106.656 273.469 107.105 273.547 107.582C273.625 108.051 273.734 108.461 273.875 108.812V109H271.613ZM267.781 107.348C268.203 107.348 268.598 107.293 268.965 107.184C269.332 107.074 269.668 106.93 269.973 106.75C270.27 106.57 270.527 106.367 270.746 106.141C270.965 105.906 271.137 105.664 271.262 105.414V102.848H269.246C268.496 102.848 267.84 102.914 267.277 103.047C266.723 103.172 266.281 103.367 265.953 103.633C265.719 103.82 265.539 104.043 265.414 104.301C265.297 104.559 265.238 104.852 265.238 105.18C265.238 105.492 265.289 105.781 265.391 106.047C265.5 106.312 265.66 106.539 265.871 106.727C266.082 106.922 266.348 107.074 266.668 107.184C266.988 107.293 267.359 107.348 267.781 107.348ZM282.02 109L276.805 96.3203H279.031L282.664 105.883L282.863 106.668L283.074 105.883L286.625 96.3203H288.84L283.672 109H282.02ZM300.441 109C300.355 108.836 300.285 108.633 300.23 108.391C300.184 108.141 300.148 107.883 300.125 107.617C299.906 107.836 299.66 108.043 299.387 108.238C299.121 108.434 298.828 108.605 298.508 108.754C298.18 108.902 297.832 109.02 297.465 109.105C297.098 109.191 296.707 109.234 296.293 109.234C295.621 109.234 295.012 109.137 294.465 108.941C293.926 108.746 293.469 108.48 293.094 108.145C292.711 107.816 292.414 107.426 292.203 106.973C292 106.512 291.898 106.016 291.898 105.484C291.898 104.789 292.035 104.18 292.309 103.656C292.59 103.133 292.984 102.695 293.492 102.344C294 102 294.609 101.742 295.32 101.57C296.039 101.398 296.84 101.312 297.723 101.312H300.09V100.316C300.09 99.9336 300.02 99.5898 299.879 99.2852C299.738 98.9805 299.539 98.7188 299.281 98.5C299.023 98.2891 298.707 98.125 298.332 98.0078C297.965 97.8906 297.551 97.832 297.09 97.832C296.66 97.832 296.273 97.8867 295.93 97.9961C295.594 98.1055 295.309 98.25 295.074 98.4297C294.84 98.6094 294.656 98.8242 294.523 99.0742C294.398 99.3164 294.336 99.5703 294.336 99.8359H292.156C292.164 99.375 292.281 98.9219 292.508 98.4766C292.742 98.0312 293.078 97.6289 293.516 97.2695C293.945 96.918 294.469 96.6328 295.086 96.4141C295.711 96.1953 296.418 96.0859 297.207 96.0859C297.926 96.0859 298.594 96.1758 299.211 96.3555C299.828 96.5273 300.363 96.7891 300.816 97.1406C301.262 97.5 301.613 97.9453 301.871 98.4766C302.129 99.0078 302.258 99.6289 302.258 100.34V106.234C302.258 106.656 302.297 107.105 302.375 107.582C302.453 108.051 302.562 108.461 302.703 108.812V109H300.441ZM296.609 107.348C297.031 107.348 297.426 107.293 297.793 107.184C298.16 107.074 298.496 106.93 298.801 106.75C299.098 106.57 299.355 106.367 299.574 106.141C299.793 105.906 299.965 105.664 300.09 105.414V102.848H298.074C297.324 102.848 296.668 102.914 296.105 103.047C295.551 103.172 295.109 103.367 294.781 103.633C294.547 103.82 294.367 104.043 294.242 104.301C294.125 104.559 294.066 104.852 294.066 105.18C294.066 105.492 294.117 105.781 294.219 106.047C294.328 106.312 294.488 106.539 294.699 106.727C294.91 106.922 295.176 107.074 295.496 107.184C295.816 107.293 296.188 107.348 296.609 107.348ZM315.453 104.688C315.453 104.164 315.332 103.723 315.09 103.363C314.855 103.004 314.551 102.699 314.176 102.449C313.801 102.207 313.387 102.004 312.934 101.84C312.488 101.676 312.059 101.527 311.645 101.395C311.043 101.199 310.43 100.965 309.805 100.691C309.188 100.41 308.625 100.074 308.117 99.6836C307.602 99.2852 307.18 98.8164 306.852 98.2773C306.531 97.7305 306.371 97.0898 306.371 96.3555C306.371 95.6211 306.531 94.9648 306.852 94.3867C307.18 93.8086 307.605 93.3203 308.129 92.9219C308.652 92.5234 309.246 92.2227 309.91 92.0195C310.574 91.8086 311.242 91.7031 311.914 91.7031C312.656 91.7031 313.371 91.8281 314.059 92.0781C314.746 92.3203 315.355 92.6641 315.887 93.1094C316.418 93.5547 316.844 94.0938 317.164 94.7266C317.484 95.3594 317.652 96.0664 317.668 96.8477H315.441C315.379 96.3555 315.258 95.9102 315.078 95.5117C314.898 95.1055 314.66 94.7578 314.363 94.4688C314.066 94.1797 313.711 93.957 313.297 93.8008C312.891 93.6367 312.43 93.5547 311.914 93.5547C311.5 93.5547 311.094 93.6133 310.695 93.7305C310.305 93.8477 309.957 94.0234 309.652 94.2578C309.34 94.4922 309.09 94.7812 308.902 95.125C308.723 95.4688 308.633 95.8672 308.633 96.3203C308.641 96.8125 308.766 97.2305 309.008 97.5742C309.25 97.9102 309.559 98.1953 309.934 98.4297C310.301 98.6641 310.699 98.8594 311.129 99.0156C311.566 99.1719 311.977 99.3086 312.359 99.4258C312.992 99.6211 313.625 99.8594 314.258 100.141C314.891 100.414 315.469 100.766 315.992 101.195C316.508 101.594 316.922 102.082 317.234 102.66C317.555 103.238 317.715 103.906 317.715 104.664C317.715 105.43 317.543 106.098 317.199 106.668C316.863 107.238 316.426 107.711 315.887 108.086C315.348 108.469 314.738 108.758 314.059 108.953C313.379 109.141 312.699 109.234 312.02 109.234C311.207 109.234 310.406 109.098 309.617 108.824C308.836 108.551 308.156 108.156 307.578 107.641C307.062 107.195 306.652 106.676 306.348 106.082C306.051 105.48 305.891 104.812 305.867 104.078H308.082C308.152 104.609 308.297 105.082 308.516 105.496C308.734 105.902 309.016 106.246 309.359 106.527C309.703 106.816 310.098 107.035 310.543 107.184C310.996 107.324 311.488 107.395 312.02 107.395C312.441 107.395 312.855 107.344 313.262 107.242C313.676 107.133 314.043 106.965 314.363 106.738C314.684 106.52 314.945 106.242 315.148 105.906C315.352 105.562 315.453 105.156 315.453 104.688ZM326.34 107.477C326.73 107.477 327.109 107.414 327.477 107.289C327.852 107.164 328.184 106.988 328.473 106.762C328.762 106.543 328.992 106.285 329.164 105.988C329.344 105.684 329.438 105.355 329.445 105.004H331.496C331.488 105.566 331.34 106.105 331.051 106.621C330.77 107.129 330.391 107.574 329.914 107.957C329.438 108.348 328.891 108.66 328.273 108.895C327.656 109.121 327.012 109.234 326.34 109.234C325.379 109.234 324.539 109.062 323.82 108.719C323.102 108.375 322.504 107.91 322.027 107.324C321.543 106.746 321.18 106.078 320.938 105.32C320.695 104.555 320.574 103.75 320.574 102.906V102.414C320.574 101.578 320.695 100.777 320.938 100.012C321.18 99.2461 321.543 98.5703 322.027 97.9844C322.504 97.4062 323.102 96.9453 323.82 96.6016C324.539 96.2578 325.379 96.0859 326.34 96.0859C327.09 96.0859 327.777 96.207 328.402 96.4492C329.035 96.6836 329.582 97.0039 330.043 97.4102C330.496 97.8242 330.852 98.3125 331.109 98.875C331.367 99.4375 331.496 100.039 331.496 100.68H329.445C329.438 100.297 329.352 99.9375 329.188 99.6016C329.031 99.2578 328.816 98.957 328.543 98.6992C328.27 98.4414 327.941 98.2383 327.559 98.0898C327.184 97.9414 326.777 97.8672 326.34 97.8672C325.668 97.8672 325.102 98.0039 324.641 98.2773C324.188 98.543 323.82 98.8906 323.539 99.3203C323.258 99.7578 323.055 100.246 322.93 100.785C322.812 101.324 322.754 101.867 322.754 102.414V102.906C322.754 103.461 322.812 104.012 322.93 104.559C323.055 105.098 323.258 105.582 323.539 106.012C323.812 106.449 324.176 106.805 324.629 107.078C325.09 107.344 325.66 107.477 326.34 107.477ZM343.66 96.0859C344.059 96.0859 344.473 96.1133 344.902 96.168C345.34 96.2227 345.668 96.2969 345.887 96.3906L345.594 98.5117C345.172 98.418 344.77 98.3516 344.387 98.3125C344.012 98.2656 343.617 98.2422 343.203 98.2422C342.672 98.2422 342.191 98.3086 341.762 98.4414C341.332 98.5664 340.957 98.7539 340.637 99.0039C340.348 99.2227 340.094 99.4922 339.875 99.8125C339.664 100.125 339.488 100.477 339.348 100.867V109H337.168V96.3203H339.23L339.324 98.0195L339.336 98.3359C339.852 97.6406 340.469 97.0938 341.188 96.6953C341.914 96.2891 342.738 96.0859 343.66 96.0859ZM350.105 96.3203H356.586V107.125H360.723V109H350.105V107.125H354.418V98.207H350.105V96.3203ZM354.137 92.9922C354.137 92.8047 354.164 92.6289 354.219 92.4648C354.281 92.3008 354.375 92.1602 354.5 92.043C354.602 91.9414 354.73 91.8633 354.887 91.8086C355.051 91.7461 355.234 91.7148 355.438 91.7148C355.641 91.7148 355.82 91.7461 355.977 91.8086C356.133 91.8633 356.262 91.9414 356.363 92.043C356.488 92.1523 356.582 92.2891 356.645 92.4531C356.707 92.6172 356.738 92.7969 356.738 92.9922C356.738 93.3438 356.629 93.6367 356.41 93.8711C356.191 94.1055 355.867 94.2227 355.438 94.2227C355 94.2227 354.672 94.1055 354.453 93.8711C354.242 93.6367 354.137 93.3438 354.137 92.9922ZM364.168 113.875V96.3203H366.148L366.254 97.7031C366.426 97.4844 366.613 97.2891 366.816 97.1172C367.02 96.9375 367.238 96.7852 367.473 96.6602C367.801 96.4727 368.164 96.332 368.562 96.2383C368.969 96.1367 369.402 96.0859 369.863 96.0859C370.676 96.0859 371.395 96.2461 372.02 96.5664C372.645 96.8867 373.168 97.332 373.59 97.9023C374.012 98.4727 374.332 99.1562 374.551 99.9531C374.77 100.742 374.879 101.609 374.879 102.555V102.801C374.879 103.707 374.77 104.555 374.551 105.344C374.332 106.125 374.012 106.805 373.59 107.383C373.168 107.961 372.645 108.414 372.02 108.742C371.402 109.07 370.695 109.234 369.898 109.234C369.414 109.234 368.961 109.184 368.539 109.082C368.125 108.98 367.75 108.836 367.414 108.648C367.211 108.531 367.02 108.402 366.84 108.262C366.66 108.113 366.492 107.953 366.336 107.781V113.875H364.168ZM372.711 102.555C372.711 101.938 372.641 101.352 372.5 100.797C372.367 100.234 372.16 99.7383 371.879 99.3086C371.59 98.8867 371.227 98.5508 370.789 98.3008C370.352 98.0508 369.828 97.9258 369.219 97.9258C368.883 97.9258 368.57 97.9648 368.281 98.043C368 98.1211 367.746 98.2344 367.52 98.3828C367.27 98.5312 367.047 98.7148 366.852 98.9336C366.656 99.1523 366.484 99.3945 366.336 99.6602V105.766C366.469 106 366.621 106.219 366.793 106.422C366.965 106.625 367.16 106.797 367.379 106.938C367.629 107.102 367.906 107.23 368.211 107.324C368.523 107.418 368.867 107.465 369.242 107.465C369.844 107.465 370.363 107.34 370.801 107.09C371.238 106.832 371.598 106.488 371.879 106.059C372.16 105.629 372.367 105.133 372.5 104.57C372.641 104.008 372.711 103.418 372.711 102.801V102.555ZM383.727 93.25V96.3203H388.555V97.9961H383.727V104.887C383.727 105.379 383.789 105.785 383.914 106.105C384.039 106.426 384.211 106.68 384.43 106.867C384.648 107.062 384.898 107.199 385.18 107.277C385.469 107.355 385.773 107.395 386.094 107.395C386.328 107.395 386.57 107.383 386.82 107.359C387.07 107.328 387.316 107.293 387.559 107.254C387.793 107.215 388.012 107.176 388.215 107.137C388.426 107.09 388.598 107.051 388.73 107.02L389.035 108.555C388.855 108.664 388.637 108.762 388.379 108.848C388.121 108.926 387.84 108.992 387.535 109.047C387.23 109.109 386.906 109.156 386.562 109.188C386.227 109.219 385.891 109.234 385.555 109.234C384.992 109.234 384.465 109.156 383.973 109C383.488 108.836 383.066 108.578 382.707 108.227C382.348 107.883 382.062 107.438 381.852 106.891C381.648 106.336 381.547 105.668 381.547 104.887V97.9961H378.219V96.3203H381.547V93.25H383.727ZM399.594 92.4648C399.594 92.832 399.547 93.2188 399.453 93.625C399.367 94.0312 399.238 94.4297 399.066 94.8203C398.887 95.2188 398.672 95.5977 398.422 95.957C398.172 96.3164 397.883 96.6367 397.555 96.918L396.371 96.0742C396.738 95.5195 397.012 94.9531 397.191 94.375C397.379 93.7969 397.473 93.1719 397.473 92.5V90.7422H399.594V92.4648Z" fill="#F5F5F5"/>
<path d="M201.707 102.707C202.098 102.317 202.098 101.683 201.707 101.293L195.343 94.9289C194.953 94.5384 194.319 94.5384 193.929 94.9289C193.538 95.3195 193.538 95.9526 193.929 96.3431L199.586 102L193.929 107.657C193.538 108.047 193.538 108.681 193.929 109.071C194.319 109.462 194.953 109.462 195.343 109.071L201.707 102.707ZM155 103H201V101H155V103Z" fill="#F5F5F5"/>
</svg>
